<svg width="1080" height="1080" viewBox="0 0 1080 1080" fill="none" xmlns="http://www.w3.org/2000/svg">
<rect width="1080" height="1080" rx="540" fill="#0D0D0D"/>
<path d="M544.219 490H434.063C433.281 480.885 431.198 472.617 427.813 465.195C424.557 457.773 420 451.393 414.141 446.055C408.411 440.586 401.445 436.419 393.242 433.555C385.039 430.56 375.729 429.062 365.313 429.062C347.083 429.062 331.654 433.49 319.023 442.344C306.523 451.198 297.018 463.893 290.508 480.43C284.128 496.966 280.938 516.823 280.938 540C280.938 564.479 284.193 584.987 290.703 601.523C297.344 617.93 306.914 630.299 319.414 638.633C331.914 646.836 346.953 650.937 364.531 650.937C374.557 650.937 383.542 649.701 391.484 647.227C399.427 644.622 406.328 640.911 412.188 636.094C418.047 631.276 422.799 625.482 426.445 618.711C430.221 611.81 432.76 604.062 434.063 595.469L544.219 596.25C542.917 613.177 538.164 630.43 529.961 648.008C521.758 665.456 510.104 681.602 495 696.445C480.026 711.159 461.471 723.008 439.336 731.992C417.201 740.977 391.484 745.469 362.188 745.469C325.469 745.469 292.526 737.591 263.359 721.836C234.323 706.081 211.341 682.904 194.414 652.305C177.617 621.706 169.219 584.271 169.219 540C169.219 495.469 177.813 457.969 195 427.5C212.188 396.901 235.365 373.789 264.531 358.164C293.698 342.409 326.25 334.531 362.188 334.531C387.448 334.531 410.69 337.982 431.914 344.883C453.138 351.784 471.758 361.875 487.773 375.156C503.789 388.307 516.68 404.518 526.445 423.789C536.211 443.06 542.135 465.13 544.219 490Z" fill="white"/>
<path d="M809.111 465C808.07 451.979 803.187 441.823 794.463 434.531C785.869 427.24 772.783 423.594 755.205 423.594C744.007 423.594 734.827 424.961 727.666 427.695C720.635 430.299 715.426 433.88 712.041 438.437C708.656 442.995 706.898 448.203 706.768 454.062C706.507 458.88 707.354 463.242 709.307 467.148C711.39 470.924 714.645 474.375 719.072 477.5C723.499 480.495 729.163 483.229 736.064 485.703C742.966 488.177 751.169 490.391 760.674 492.344L793.486 499.375C815.622 504.062 834.567 510.247 850.322 517.93C866.077 525.612 878.968 534.661 888.994 545.078C899.02 555.365 906.377 566.953 911.064 579.844C915.882 592.734 918.356 606.797 918.486 622.031C918.356 648.333 911.781 670.599 898.76 688.828C885.739 707.057 867.119 720.924 842.9 730.43C818.812 739.935 789.84 744.688 755.986 744.688C721.221 744.688 690.882 739.544 664.971 729.258C639.189 718.971 619.137 703.151 604.814 681.797C590.622 660.312 583.46 632.839 583.33 599.375H686.455C687.106 611.615 690.166 621.901 695.635 630.234C701.104 638.568 708.786 644.883 718.682 649.18C728.708 653.477 740.622 655.625 754.424 655.625C766.012 655.625 775.713 654.193 783.525 651.328C791.338 648.464 797.262 644.492 801.299 639.414C805.335 634.336 807.419 628.542 807.549 622.031C807.419 615.911 805.4 610.573 801.494 606.016C797.718 601.328 791.468 597.161 782.744 593.516C774.02 589.74 762.236 586.224 747.393 582.969L707.549 574.375C672.132 566.693 644.202 553.867 623.76 535.898C603.447 517.799 593.356 493.125 593.486 461.875C593.356 436.484 600.127 414.284 613.799 395.273C627.601 376.133 646.676 361.224 671.025 350.547C695.505 339.87 723.564 334.531 755.205 334.531C787.497 334.531 815.426 339.935 838.994 350.742C862.562 361.549 880.726 376.784 893.486 396.445C906.377 415.977 912.887 438.828 913.018 465H809.111Z" fill="#2378DA"/>
</svg>
